<svg xmlns="http://www.w3.org/2000/svg" viewBox="0 0 101.06 138.1"><defs><style>.cls-1{fill:#eaf1d4;stroke-width:20px;}.cls-1,.cls-2,.cls-3{stroke:#399;stroke-miterlimit:10;}.cls-2{fill:#399;stroke-width:4px;}.cls-3,.cls-4{fill:none;}.cls-3{stroke-width:5px;}</style></defs><g id="Calque_2" data-name="Calque 2"><g id="Calque_4" data-name="Calque 4"><path class="cls-1" d="M23.44,10H77.63c7.42,0,13.43,6.43,13.43,14.36v89.38c0,7.93-6,14.36-13.43,14.36H23.44C16,128.1,10,121.67,10,113.74V24.36C10,16.43,16,10,23.44,10Z"/><path class="cls-2" d="M44.76,52.25c1.4,2.71,6.11,2.61,9.81,2.9,2.07.16,17.48,1.49,24,9.89,2.87,3.69,3.64,7.65,4.5,12.93,1.41,8.54-.8,12.25,1.42,18.71a24.06,24.06,0,0,0,6.58,9.76V28.07c-3-2.21-4.19-1.67-4.51-1.48-.78.44-.8,1.41-1.68,4.58-.63,2.23-.75,2.23-1.15,3.69-1.48,5.43-.15,6.89-1.61,11-.64,1.81-1.36,3.81-3.25,5s-4.27,1.07-8,.3c-8.3-1.73-11.81-2.88-17.16-3.55-6.74-.85-8.28.28-8.87,1.18A3.64,3.64,0,0,0,44.76,52.25Z"/><path class="cls-2" d="M59.34,91.65c-1.62.64-3.14-.27-5.62-1.47a72.45,72.45,0,0,0-11.83-4.44,36.1,36.1,0,0,0-4.73-.89c-3.95-.46-10.6-1.25-14.66,1.85C19.46,89,19,92.64,18,99.63c-1.32,9.57.66,12.67-1.42,18.71A23.86,23.86,0,0,1,10,128.1V49.73c2.41-1.81,3.74-1.83,4.51-1.48.47.21,2,1,2.5,10.71.33,6.4-.24,7.82.93,11.1A11.68,11.68,0,0,0,21.78,76c2.31,1.7,4.48,1.49,8.58,1.77,4.33.31,7.92,1.09,15.08,2.67a37.2,37.2,0,0,1,10.94,3.84c2.14,1.2,5.24,3,5,5A3.17,3.17,0,0,1,59.34,91.65Z"/><path class="cls-3" d="M16.46,43.15A82.24,82.24,0,0,1,17.05,31c.84-6.84,1.93-8.61,3.06-9.78A13.31,13.31,0,0,1,26.22,18a23.52,23.52,0,0,1,7.69-.89,79.85,79.85,0,0,0,13.9-1.18"/><path class="cls-3" d="M84.58,95A83.65,83.65,0,0,1,84,107.13c-.84,6.84-1.93,8.61-3.06,9.78a13.36,13.36,0,0,1-6.11,3.23,23.55,23.55,0,0,1-7.69.89,80.79,80.79,0,0,0-13.9,1.18"/><path class="cls-3" d="M16.27,95a83.44,83.44,0,0,0,.6,12.13c.83,6.84,1.92,8.61,3.05,9.78A13.31,13.31,0,0,0,26,120.14a23.55,23.55,0,0,0,7.69.89,80.72,80.72,0,0,1,13.9,1.18"/><path class="cls-4" d="M85.58,42A83.65,83.65,0,0,0,85,29.83c-.84-6.84-1.93-8.61-3.06-9.78a13.26,13.26,0,0,0-6.11-3.23,23.55,23.55,0,0,0-7.69-.89,80.79,80.79,0,0,1-13.9-1.18"/></g></g></svg>